<?xml version="1.0" encoding="UTF-8" standalone="no"?>
<svg width="2048" height="2048" viewBox="0 0 2048 2048" xmlns="http://www.w3.org/2000/svg">
  <defs>
    <radialGradient id="bg" cx="50%" cy="42%" r="75%">
      <stop offset="0%" stop-color="#3a1108"/>
      <stop offset="55%" stop-color="#1d0805"/>
      <stop offset="100%" stop-color="#0c0403"/>
    </radialGradient>
    <radialGradient id="iris" cx="50%" cy="50%" r="55%">
      <stop offset="0%" stop-color="#fff8d8"/>
      <stop offset="22%" stop-color="#ffde5c"/>
      <stop offset="52%" stop-color="#ff8a1e"/>
      <stop offset="80%" stop-color="#e8391b"/>
      <stop offset="100%" stop-color="#8f1408"/>
    </radialGradient>
    <radialGradient id="halo" cx="50%" cy="50%" r="50%">
      <stop offset="0%" stop-color="#ff6a00" stop-opacity="0.55"/>
      <stop offset="70%" stop-color="#ff3d00" stop-opacity="0.18"/>
      <stop offset="100%" stop-color="#ff3d00" stop-opacity="0"/>
    </radialGradient>
    <linearGradient id="flame" x1="0" y1="1" x2="0" y2="0">
      <stop offset="0%" stop-color="#ffd23f"/>
      <stop offset="55%" stop-color="#ff7a18"/>
      <stop offset="100%" stop-color="#c81d11" stop-opacity="0"/>
    </linearGradient>
  </defs>
  <rect x="200" y="200" width="1648" height="1648" rx="400" ry="400" fill="url(#bg)"/>
  <ellipse cx="1024" cy="1060" rx="880" ry="560" fill="url(#halo)"/>
  <g fill="none" stroke="url(#flame)" stroke-linecap="round">
    <path d="M690 810 C 640 660, 700 560, 640 440" stroke-width="46" opacity="0.9"/>
    <path d="M1024 730 C 1000 590, 1060 500, 1024 372" stroke-width="54"/>
    <path d="M1358 810 C 1408 660, 1348 560, 1408 440" stroke-width="46" opacity="0.9"/>
    <path d="M852 706 C 832 626, 868 572, 848 506" stroke-width="26" opacity="0.7"/>
    <path d="M1196 706 C 1216 626, 1180 572, 1200 506" stroke-width="26" opacity="0.7"/>
  </g>
  <path d="M374 1024 C 610 636, 1438 636, 1674 1024 C 1438 1412, 610 1412, 374 1024 Z"
        fill="url(#iris)" stroke="#ffb347" stroke-width="16"/>
  <path d="M374 1024 C 610 636, 1438 636, 1674 1024 C 1438 1412, 610 1412, 374 1024 Z"
        fill="none" stroke="#ff3d00" stroke-width="44" opacity="0.35"/>
  <path d="M374 1024 C 610 636, 1438 636, 1674 1024 C 1500 872, 1252 792, 1024 792 C 796 792, 548 872, 374 1024 Z"
        fill="#7a0f05" opacity="0.28"/>
  <ellipse cx="1024" cy="1024" rx="66" ry="252" fill="#150301"/>
  <ellipse cx="1024" cy="1024" rx="66" ry="252" fill="none" stroke="#ffd23f" stroke-width="6" opacity="0.5"/>
</svg>